# AST/ASF file generated using VICON BodyLanguage
# -----------------------------------------------
:version 1.10
:name VICON
:units
  mass 1.0
  length 0.45
  angle deg
:documentation
   .ast/.asf automatically generated from VICON data using
   VICON BodyBuilder and BodyLanguage model FoxedUp or BRILLIANT.MOD
:root
   order TX TY TZ RX RY RZ
   axis XYZ
   position 0 0 0  
   orientation 0 0 0 
:bonedata
  begin
     id 1 
     name lhipjoint
     direction 0.671379 -0.66392 0.329334 
     length 2.38647 
     axis 0 0 0  XYZ
  end
  begin
     id 2 
     name lfemur
     direction 0.34202 -0.939693 0  
     length 6.48179  
     axis 0 0 20  XYZ
    dof rx ry rz
    limits (-160.0 20.0)
           (-70.0 70.0)
           (-60.0 70.0)
  end
  begin
     id 3 
     name ltibia
     direction 0.34202 -0.939693 0   
     length 6.86524   
     axis 0 0 20   XYZ
    dof rx
    limits (-10.0 170.0)
  end
  begin
     id 4 
     name lfoot
     direction 0.204886 -0.562919 0.800715   
     length 1.73031   
     axis -90 7.62852e-016 20   XYZ
    dof rx rz
    limits (-45.0 90.0)
           (-70.0 20.0)
  end
  begin
     id 5 
     name ltoes
     direction 1.53548e-011 -4.21841e-011 1   
     length 0.828161   
     axis -90 7.62852e-016 20   XYZ
    dof rx
    limits (-90.0 20.0)
  end
  begin
     id 6 
     name rhipjoint
     direction -0.662732 -0.670855 0.332775   
     length 2.3618  
     axis 0 0 0  XYZ 
  end
  begin
     id 7 
     name rfemur
     direction -0.34202 -0.939693 0   
     length 6.3025   
     axis 0 0 -20   XYZ
    dof rx ry rz
    limits (-160.0 20.0)
           (-70.0 70.0)
           (-70.0 60.0)
  end
  begin
     id 8 
     name rtibia
     direction -0.34202 -0.939693 0   
     length 6.8732   
     axis 0 0 -20   XYZ
    dof rx
    limits (-10.0 170.0)
 end
 begin
     id 9 
     name rfoot
     direction -0.173856 -0.477665 0.861168   
     length 1.54784  
     axis -90 -7.62852e-016 -20   XYZ
    dof rx rz
    limits (-45.0 90.0)
           (-20.0 70.0)
  end
  begin
     id 10 
     name rtoes
     direction -1.53562e-011 -4.21802e-011 1   
     length 0.759618   
     axis -90 -7.62852e-016 -20   XYZ
    dof rx
    limits (-90.0 20.0)
  end
  begin
     id 11 
     name lowerback
     direction -0.0278357 0.999497 -0.0151789   
     length 1.97203   
     axis 0 0 0   XYZ
    dof rx ry rz
    limits (-20.0 45.0)
           (-30.0 30.0)
           (-30.0 30.0)
  end
  begin
     id 12 
     name upperback
     direction -0.00360622 0.997542 0.0699804   
     length 1.94709   
     axis 0 0 0   XYZ
    dof rx ry rz
    limits (-20.0 45.0)
           (-30.0 30.0)
           (-30.0 30.0)
  end
  begin
     id 13 
     name thorax
     direction 0.00907706 0.997048 0.0762461   
     length 1.95722   
     axis 0 0 0   XYZ
    dof rx ry rz
    limits (-20.0 45.0)
           (-30.0 30.0)
           (-30.0 30.0)
  end
  begin
     id 14 
     name lowerneck
     direction -0.0481835 0.99872 -0.0153927   
     length 1.63078   
     axis 0 0 0   XYZ
    dof rx ry rz
    limits (-20.0 45.0)
           (-30.0 30.0)
           (-30.0 30.0)
  end
  begin
     id 15 
     name upperneck
     direction 0.0859716 0.979226 -0.183644   
     length 1.62591   
     axis 0 0 0   XYZ
    dof rx ry rz
    limits (-20.0 45.0)
           (-30.0 30.0)
           (-30.0 30.0)
  end
  begin
     id 16
     name head
     direction 0.0324821 0.997629 -0.0606773  
     length 1.64811  
     axis 0 0 0   XYZ
    dof rx ry rz
    limits (-20.0 45.0)
           (-30.0 30.0)
           (-30.0 30.0)
  end
  begin
     id 17 
     name lclavicle
     direction 0.939609 0.311019 0.142835  
     length 3.70647  
     axis 0 0 0   XYZ
    dof ry rz
    limits (-20.0 10.0)
           (0.0 20.0)
  end
  begin
     id 18 
     name lhumerus
     direction 1 -4.48963e-011 -1.59838e-027   
     length 4.59207   
     axis 180 -30 -90   XYZ
    dof rx ry rz
    limits (-60.0 90.0)
           (-90.0 90.0)
           (-90.0 90.0)
  end
  begin
     id 19
     name lradius
     direction 1 -4.48957e-011 -1.3483e-026   
     length 2.98109   
     axis 180 -30 -90   XYZ
    dof rx
    limits (-10.0 170.0)
  end
  begin
     id 20
     name lwrist
     direction 1 -4.48954e-011 -3.11579e-026   
     length 1.49055   
     axis 2.00652e-014 90 90   XYZ
    dof ry
    limits (-180.0 0.0)
 end
  begin
     id 21 
     name lhand
     direction 1 -4.4911e-011 -6.23158e-026   
     length 0.480203   
     axis 3.97628e-014 90 90   XYZ
    dof rx rz
    limits (-90.0 90.0)
           (-45.0 45.0)
  end
  begin
     id 22 
     name lfingers
     direction 1 -4.48893e-011 -1.24632e-025   
     length 0.387152   
     axis 7.95256e-014 90 90   XYZ
    dof rx
    limits (0.0 90.0)
  end
  begin
     id 23
     name lthumb
     direction 0.707107 -6.35013e-011 0.707107   
     length 0.555875   
     axis -90 45 2.85299e-015   XYZ
    dof rx rz
    limits (-45.0 45.0)
           (-45.0 45.0)
  end
  begin
     id 24 
     name rclavicle
     direction -0.950396 0.30392 0.0661859   
     length 3.70894  
     axis 0 0 0   XYZ 
    dof ry rz
    limits (-10.0 20.0)
           (-20.0 0.0)
  end
  begin
     id 25 
     name rhumerus
     direction -1 -4.48957e-011 -2.96677e-027  
     length 4.76508   
     axis 180 30 90   XYZ
    dof rx ry rz
    limits (-90.0 60.0)
           (-90.0 90.0)
           (-90.0 90.0)
  end
  begin
     id 26 
     name rradius
     direction -1 -4.48974e-011 -1.44501e-026   
     length 2.78902   
     axis 180 30 90   XYZ
    dof rx
    limits (-10.0 170.0)
  end
  begin
     id 27 
     name rwrist
     direction -1 -4.48978e-011 -3.11579e-026   
     length 1.39451   
     axis 2.00652e-014 -90 -90   XYZ
    dof ry
    limits (-180.0 0.0)
  end
  begin
     id 28
     name rhand
     direction -1 -4.48956e-011 -6.23158e-026   
     length 0.721303   
     axis 3.97628e-014 -90 -90   XYZ
    dof rx rz
    limits (-90.0 90.0)
           (-45.0 45.0)
  end
  begin
     id 29
     name rfingers
     direction -1 -4.4899e-011 -1.24632e-025   
     length 0.581533   
     axis 7.95256e-014 -90 -90   XYZ
    dof rx
    limits (0.0 90.0)
  end
  begin
     id 30
     name rthumb
     direction -0.707107 -6.34911e-011 0.707107   
     length 0.834968   
     axis -90 -45 -2.85299e-015   XYZ
    dof rx rz
    limits (-45.0 45.0)
           (-45.0 45.0)
  end
:hierarchy
  begin
    root lhipjoint rhipjoint lowerback
    lhipjoint lfemur
    lfemur ltibia
    ltibia lfoot
    lfoot ltoes
    rhipjoint rfemur
    rfemur rtibia
    rtibia rfoot
    rfoot rtoes
    lowerback upperback
    upperback thorax
    thorax lowerneck lclavicle rclavicle
    lowerneck upperneck
    upperneck head
    lclavicle lhumerus
    lhumerus lradius
    lradius lwrist
    lwrist lhand lthumb
    lhand lfingers
    rclavicle rhumerus
    rhumerus rradius
    rradius rwrist
    rwrist rhand rthumb
    rhand rfingers
  end

#!OML:ASF I:\salsa\salsa 7_09\Patient 1\Session 1\dancerfemale.ASF
:FULLY-SPECIFIED
:DEGREES
549
root -2.99164 15.4093 -1.40398 349.8 -218.834 357.956
lowerback -14.1179 -7.03753 -9.10726
upperback -16.712 -6.1347 -0.209387
thorax -9.43459 -1.09663 4.19687
lowerneck 1.16716 -11.7908 -15.9821
upperneck -4.70487 -15.3289 21.5191
head 1.49585 -7.47931 8.68483
rclavicle -1.14177e-014 2.96127e-014
rhumerus -54.1232 5.4982 -38.5127
rradius 125.306
rwrist -9.90933
rhand 5.49478 28.055
rfingers 7.12502
rthumb 30.8418 0.62353
lclavicle -1.14177e-014 2.96127e-014
lhumerus -25.9082 -30.6216 76.1989
lradius 96.4006
lwrist 58.4226
lhand 37.4708 59.7038
lfingers 7.12502
lthumb 60.2675 73.2001
rfemur -8.80809 -3.32631 11.0259
rtibia 41.561
rfoot -24.5753 2.70655
rtoes -33.8845
lfemur 4.33103 12.5282 -8.63323
ltibia 39.3791
lfoot -32.5891 17.8957
ltoes -5.84944
550
root -2.9305 15.4645 -1.43485 350.835 -218.084 357.926
lowerback -13.8084 -6.74687 -8.93124
upperback -16.6288 -5.80904 0.0779008
thorax -9.52962 -0.933901 4.46489
lowerneck 1.24699 -11.6452 -16.377
upperneck -2.32642 -15.5768 19.3827
head 2.02366 -7.62209 7.99078
rclavicle 2.88238e-014 -2.98177e-016
rhumerus -53.0339 4.70926 -35.201
rradius 126.332
rwrist -10.5075
rhand 6.73564 28.3124
rfingers 7.12502
rthumb 32.024 1.11131
lclavicle 2.88238e-014 -2.98177e-016
lhumerus -25.9437 -30.3022 76.6985
lradius 97.8894
lwrist 58.6363
lhand 37.4825 60.6425
lfingers 7.12502
lthumb 60.2776 74.1281
rfemur -8.84314 -3.34166 11.132
rtibia 40.446
rfoot -24.431 2.12448
rtoes -34.4683
lfemur 3.67652 11.8985 -9.07381
ltibia 38.3877
lfoot -32.1858 18.2637
ltoes -6.16745
551
root -2.88051 15.5137 -1.46194 351.736 -217.1 357.967
lowerback -13.2729 -6.52699 -8.15283
upperback -16.6366 -5.64288 0.088189
thorax -9.9073 -0.915311 4.10437
lowerneck 1.47071 -11.4815 -16.4202
upperneck 0.0158847 -15.6905 17.2082
head 2.47893 -7.72069 7.26754
rclavicle -1.25731e-013 -9.12422e-014
rhumerus -51.9132 3.95768 -32.7049
rradius 127.394
rwrist -10.9305
rhand 8.25699 28.5358
rfingers 7.12502
rthumb 33.4713 1.63624
lclavicle -1.25731e-013 -9.12422e-014
lhumerus -26.2812 -30.0061 76.6567
lradius 99.3059
lwrist 58.7918
lhand 37.8363 60.9893
lfingers 7.12502
lthumb 60.5786 74.1475
rfemur -8.68711 -3.72934 11.1761
rtibia 39.3596
rfoot -24.3017 1.7582
rtoes -35.0794
lfemur 2.96343 11.0064 -9.48621
ltibia 37.64
lfoot -31.8461 18.7322
ltoes -6.32473
552
root -2.82195 15.5554 -1.48034 352.566 -216.268 358.151
lowerback -12.744 -6.28062 -7.42003
upperback -16.6291 -5.42707 0.229547
thorax -10.255 -0.865275 3.91106
lowerneck 1.66313 -11.3768 -16.4644
upperneck 2.17478 -15.7609 14.9522
head 2.89002 -7.81234 6.53416
rclavicle -7.46933e-014 -7.64327e-014
rhumerus -50.6341 3.16595 -30.372
rradius 128.345
rwrist -11.2949
rhand 9.75628 28.8841
rfingers 7.12502
rthumb 34.8951 2.30362
lclavicle -7.46933e-014 -7.64327e-014
lhumerus -26.7073 -29.6305 76.7948
lradius 100.501
lwrist 58.7069
lhand 39.4834 60.7187
lfingers 7.12502
lthumb 61.9656 72.2554
rfemur -8.38373 -4.15188 11.4123
rtibia 38.2418
rfoot -24.2483 1.47759
rtoes -35.1016
lfemur 2.36734 10.3163 -9.58757
ltibia 37.115
lfoot -31.5599 19.1546
ltoes -6.43566
553
root -2.75924 15.5976 -1.49837 353.667 -215.45 358.657
lowerback -12.5835 -5.99428 -6.02659
upperback -16.6293 -5.13871 0.109533
thorax -10.4862 -0.870916 3.04909
lowerneck 2.11913 -11.2851 -16.1608
upperneck 3.96135 -15.7643 12.9206
head 3.14653 -7.87708 5.85769
rclavicle -8.48314e-014 -7.44449e-014
rhumerus -49.6145 2.21724 -28.9091
rradius 129.146
rwrist -11.6043
rhand 10.8311 29.4101
rfingers 7.12502
rthumb 35.9141 3.07255
lclavicle -8.48314e-014 -7.44449e-014
lhumerus -27.0897 -29.7414 76.4196
lradius 101.632
lwrist 58.8021
lhand 40.348 60.2313
lfingers 7.12502
lthumb 62.683 70.848
rfemur -8.1572 -4.66954 11.9966
rtibia 37.0742
rfoot -24.1141 1.11146
rtoes -35.1851
lfemur 1.58779 9.79386 -9.33852
ltibia 36.7418
lfoot -31.246 19.5869
ltoes -6.96825
554
root -2.68752 15.6407 -1.51206 354.758 -214.568 359.163
lowerback -12.4284 -5.7505 -5.19805
upperback -16.6232 -4.85156 0.274594
thorax -10.6363 -0.796775 2.7995
lowerneck 2.4976 -11.3028 -15.9416
upperneck 5.38916 -15.8145 10.7114
head 3.31954 -7.97278 5.14307
rclavicle 6.07287e-014 6.15736e-014
rhumerus -48.3178 1.14021 -26.725
rradius 129.946
rwrist -11.809
rhand 12.5229 28.7718
rfingers 7.12502
rthumb 37.5151 2.84222
lclavicle 6.07287e-014 6.15736e-014
lhumerus -27.2895 -29.8211 76.5896
lradius 102.57
lwrist 58.803
lhand 39.917 59.8091
lfingers 7.12502
lthumb 62.3264 70.8906
rfemur -7.9161 -5.13023 12.6661
rtibia 35.8854
rfoot -23.9691 0.596552
rtoes -35.6871
lfemur 0.761864 9.49268 -8.94184
ltibia 36.4098
lfoot -30.8131 19.8388
ltoes -7.4258
555
root -2.60794 15.6835 -1.51999 355.646 -213.532 359.369
lowerback -12.3965 -5.4587 -4.28039
upperback -16.5355 -4.51822 0.0733729
thorax -10.6577 -0.74563 2.09504
lowerneck 2.63262 -11.4223 -15.8363
upperneck 6.6885 -15.9428 9.00766
head 3.56101 -8.09133 4.58043
rclavicle -5.78712e-014 -8.64713e-014
rhumerus -47.3364 -0.206278 -24.8812
rradius 130.61
rwrist -12.3595
rhand 14.2933 28.3523
rfingers 7.12502
rthumb 39.186 2.88583
lclavicle -5.78712e-014 -8.64713e-014
lhumerus -26.9537 -30.0478 76.3617
lradius 103.219
lwrist 58.7823
lhand 39.6433 59.4209
lfingers 7.12502
lthumb 62.0988 70.7911
rfemur -7.62381 -5.56329 13.1192
rtibia 34.6985
rfoot -23.9081 -0.0238372
rtoes -35.8454
lfemur -0.0747588 9.29036 -8.67755
ltibia 36.0852
lfoot -30.2635 19.7248
ltoes -6.9
556
root -2.52328 15.7267 -1.52439 356.42 -212.38 359.382
lowerback -12.3492 -5.23406 -4.0569
upperback -16.527 -4.20099 0.112485
thorax -10.7068 -0.594149 2.02812
lowerneck 2.9137 -11.6067 -16.1175
upperneck 7.81292 -16.1416 7.35487
head 3.77361 -8.26097 4.09389
rclavicle -6.70215e-014 -8.31665e-014
rhumerus -46.2934 -1.5051 -22.7163
rradius 130.957
rwrist -12.7931
rhand 16.0246 28.3142
rfingers 7.12502
rthumb 40.8152 3.33939
lclavicle -6.70215e-014 -8.31665e-014
lhumerus -27.2472 -30.894 76.3605
lradius 104.287
lwrist 59.3909
lhand 38.8875 58.2374
lfingers 7.12502
lthumb 61.4667 70.3799
rfemur -7.33632 -6.01116 13.4423
rtibia 33.5629
rfoot -23.8814 -0.764354
rtoes -35.5227
lfemur -0.937961 9.15391 -8.4931
ltibia 35.7566
lfoot -29.4858 19.337
ltoes -6.01554
557
root -2.43664 15.7682 -1.52806 357.17 -211.179 359.428
lowerback -12.4996 -4.94368 -3.66093
upperback -16.459 -3.80642 -0.114139
thorax -10.6064 -0.447865 1.57127
lowerneck 3.49768 -11.8809 -15.9973
upperneck 8.642 -16.4744 5.83951
head 3.84161 -8.4822 3.61418
rclavicle -7.10655e-014 -6.0033e-014
rhumerus -45.6331 -3.05157 -21.0071
rradius 131.103
rwrist -12.7999
rhand 17.5654 28.3839
rfingers 7.12502
rthumb 42.2607 3.88182
lclavicle -7.10655e-014 -6.0033e-014
lhumerus -26.8892 -31.6024 76.3015
lradius 104.814
lwrist 59.6689
lhand 38.6634 58.0113
lfingers 7.12502
lthumb 61.2782 70.3758
rfemur -7.05778 -6.39401 13.841
rtibia 32.5311
rfoot -23.938 -1.63748
rtoes -35.2337
lfemur -1.81593 9.11509 -8.21262
ltibia 35.436
lfoot -28.7956 18.8779
ltoes -4.66822
558
root -2.34585 15.8052 -1.52798 357.914 -210.014 359.567
lowerback -12.6895 -4.66687 -3.28304
upperback -16.3592 -3.43342 -0.310595
thorax -10.4343 -0.311997 1.15622
lowerneck 4.25396 -12.1756 -15.5693
upperneck 9.15995 -16.8241 4.20113
head 3.74868 -8.69884 3.08486
rclavicle -2.40529e-014 1.60022e-014
rhumerus -44.8998 -4.62751 -19.2825
rradius 131.078
rwrist -12.9355
rhand 19.2689 28.4676
rfingers 7.12502
rthumb 43.8534 4.53023
lclavicle -2.40529e-014 1.60022e-014
lhumerus -26.3333 -31.9713 76.4608
lradius 105.082
lwrist 59.692
lhand 38.7843 58.1633
lfingers 7.12502
lthumb 61.38 70.4084
rfemur -6.81247 -6.64574 14.3833
rtibia 31.6259
rfoot -24.1045 -2.56187
rtoes -35.1678
lfemur -2.66998 9.17617 -7.75678
ltibia 35.1324
lfoot -27.6942 18.3652
ltoes -5.25185
